<svg xmlns="http://www.w3.org/2000/svg" viewBox="0 0 137 137"><defs>
<style>.cls-1{fill:none;stroke:#000;stroke-miterlimit:10;stroke-width:3px;}</style></defs>

<circle class="cls-1" cx="68.5" cy="68.5" r="67"/>
<polygon points="93.73 112 74.29 76.21 67.26 80.03 84.63 112 93.73 112"/>
<polygon points="107.1 112 79.69 61.53 72.66 65.35 98 112 107.1 112"/>
<polygon points="57.04 87.97 57.04 87.97 93.08 21.37 83.98 21.37 44 95.25 44 22.37 36 22.37 36 111.91 44 111.91 44 111.86 44.09 111.91 45.77 108.8 45.77 108.8 57.04 87.97"/>
<polygon points="56.15 89.61 56.15 22.37 48.15 22.37 48.15 104.4 56.15 89.61"/>
<polygon points="96.13 21.37 56.15 95.25 56.15 95.24 48.15 109.99 48.15 111.91 56.15 111.91 56.15 111.86 56.24 111.91 105.23 21.37 96.13 21.37"/>
</svg>