<svg xmlns="http://www.w3.org/2000/svg" viewBox="0 0 71.1 90.63">
<g id="Layer_2" data-name="Layer 2">
<g id="Layer_1-2" data-name="Layer 1">
<polygon points="57.73 90.63 38.29 54.85 31.26 58.66 48.63 90.63 57.73 90.63"/>
<polygon points="71.1 90.63 43.69 40.17 36.66 43.99 62 90.63 71.1 90.63"/>
<polygon points="21.04 66.6 21.04 66.6 57.08 0 47.98 0 8 73.89 8 1 0 1 0 90.54 8 90.54 8 90.49 8.09 90.54 9.77 87.44 9.77 87.44 21.04 66.6"/>
<polygon points="20.15 68.25 20.15 1 12.15 1 12.15 83.03 20.15 68.25"/>
<polygon points="60.13 0 20.15 73.89 20.15 73.87 12.15 88.62 12.15 90.54 20.15 90.54 20.15 90.49 20.24 90.54 69.23 0 60.13 0"/>
</g>
</g>
</svg>